<?xml version="1.0" encoding="utf-8"?>
<!-- Generator: Adobe Illustrator 25.0.0, SVG Export Plug-In . SVG Version: 6.00 Build 0)  -->
<svg version="1.1" id="D4G_Droplet_Only" xmlns="http://www.w3.org/2000/svg" xmlns:xlink="http://www.w3.org/1999/xlink" x="0px"
	 y="0px" viewBox="0 0 36 36" style="enable-background:new 0 0 36 36;" xml:space="preserve">
<g>
	<g>
		<path d="M20.9,4.6L18,1.7l-9.3,9.3l0,0c-2.4,2.4-3.9,5.7-3.9,9.3c0,0.3,0,0.6,0,0.9L20.9,4.6z"/>
		<polygon points="18.7,20.4 18.7,14.3 13.1,20.4 		"/>
		<path d="M24,20.4h7.2c0-3.6-1.5-7-3.9-9.3l0,0L24,7.7V20.4z"/>
		<path d="M18.7,25.7H5.9c0.7,1.5,1.6,2.9,2.8,4l0,0c2.4,2.4,5.7,3.9,9.3,3.9c0.2,0,0.4,0,0.7,0V25.7z"/>
		<path d="M24,25.7v6.5c1.2-0.6,2.4-1.5,3.4-2.4l0,0c1.2-1.2,2.1-2.5,2.8-4H24z"/>
	</g>
</g>
</svg>
